HIERARCHY
ROOT Hips
{
	OFFSET 0.00000 0.00000 0.00000
	CHANNELS 6 Xposition Yposition Zposition Zrotation Yrotation Xrotation 
	JOINT LHipJoint
	{
		OFFSET 0 0 0
		CHANNELS 3 Zrotation Yrotation Xrotation
		JOINT LeftHip
		{
			OFFSET 1.48831 -1.59570 0.95625
			CHANNELS 3 Zrotation Yrotation Xrotation
			JOINT LeftKnee
			{
				OFFSET 2.20856 -6.06797 0.00000
				CHANNELS 3 Zrotation Yrotation Xrotation
				JOINT LeftAnkle
				{
					OFFSET 2.62924 -7.22379 0.00000
					CHANNELS 3 Zrotation Yrotation Xrotation
					JOINT LeftToe
					{
						OFFSET 0.16802 -0.46163 2.41673
						CHANNELS 3 Zrotation Yrotation Xrotation
						End Site
						{
							OFFSET 0.00000 -0.00000 1.23760
						}
					}
				}
			}
		}
	}
	JOINT RHipJoint
	{
		OFFSET 0 0 0
		CHANNELS 3 Zrotation Yrotation Xrotation
		JOINT RightHip
		{
			OFFSET -1.56796 -1.59570 0.95625
			CHANNELS 3 Zrotation Yrotation Xrotation
			JOINT RightKnee
			{
				OFFSET -2.29239 -6.29829 0.00000
				CHANNELS 3 Zrotation Yrotation Xrotation
				JOINT RightAnkle
				{
					OFFSET -2.66963 -7.33475 0.00000
					CHANNELS 3 Zrotation Yrotation Xrotation
					JOINT RightToe
					{
						OFFSET -0.18185 -0.49964 2.34359
						CHANNELS 3 Zrotation Yrotation Xrotation
						End Site
						{
							OFFSET -0.00000 -0.00000 1.20477
						}
					}
				}
			}
		}
	}
	JOINT lowerback
	{
		OFFSET 0 0 0
		CHANNELS 3 Zrotation Yrotation Xrotation
		JOINT Chest
		{
			OFFSET 0.03505 2.15832 -0.34324
			CHANNELS 3 Zrotation Yrotation Xrotation
			JOINT Chest2
			{
				OFFSET -0.01089 2.17963 0.04689
				CHANNELS 3 Zrotation Yrotation Xrotation
				JOINT lowerneck
				{
					OFFSET 0 0 0
					CHANNELS 3 Zrotation Yrotation Xrotation
					JOINT Neck
					{
						OFFSET 0.04686 1.69404 0.22159
						CHANNELS 3 Zrotation Yrotation Xrotation
						JOINT Head
						{
							OFFSET 0.00265 1.69305 -0.01513
							CHANNELS 3 Zrotation Yrotation Xrotation
							End Site
							{
								OFFSET -0.00415 1.80215 -0.03034
							}
						}
					}
				}
				JOINT LeftCollar
				{
					OFFSET 0 0 0
					CHANNELS 3 Zrotation Yrotation Xrotation
					JOINT LeftShoulder
					{
						OFFSET 3.67184 1.11724 -0.19002
CHANNELS 3 Zrotation Xrotation Yrotation
						JOINT LeftElbow
						{
OFFSET 0 -5.177140 -0.000000
CHANNELS 3 Zrotation Xrotation Yrotation
							JOINT LeftWrist
							{
OFFSET 0 -3.436790 -0.000000
CHANNELS 3 Zrotation Xrotation Yrotation
								JOINT lhand
								{
									OFFSET 0 0 0
CHANNELS 3 Zrotation Xrotation Yrotation
									JOINT LFingers
									{
OFFSET 0 -0.573120 -0.000000
CHANNELS 3 Zrotation Xrotation Yrotation
										End Site
										{
OFFSET 0 -0.462060 -0.000000
										}
									}
								}
								JOINT LThumb
								{
OFFSET 0 0.000000 0.000000
CHANNELS 3 Zrotation Xrotation Yrotation
									End Site
									{
OFFSET 0 -0.469120 0.469120
									}
								}
							}
						}
					}
				}
				JOINT RightCollar
				{
					OFFSET 0 0 0
					CHANNELS 3 Zrotation Yrotation Xrotation
					JOINT RightShoulder
					{
						OFFSET -3.59596 0.95831 -0.26050
CHANNELS 3 Zrotation Xrotation Yrotation
						JOINT RightElbow
						{
OFFSET 0 -5.239080 -0.000000
CHANNELS 3 Zrotation Xrotation Yrotation
							JOINT RightWrist
							{
OFFSET 0 -3.464850 -0.000000
CHANNELS 3 Zrotation Xrotation Yrotation
								JOINT rhand
								{
									OFFSET 0 0 0
CHANNELS 3 Zrotation Xrotation Yrotation
									JOINT RFingers
									{
OFFSET 0 -0.608750 -0.000000
CHANNELS 3 Zrotation Xrotation Yrotation
										End Site
										{
OFFSET 0 -0.490790 -0.000000
										}
									}
								}
								JOINT RThumb
								{
OFFSET 0 0.000000 0.000000
CHANNELS 3 Zrotation Xrotation Yrotation
									End Site
									{
OFFSET 0 -0.498290 0.498290
									}
								}
							}
						}
					}
				}
			}
		}
	}
}
MOTION
Frames: 12
Frame Time: 0.008333333333333333
-3.625703 16.342767 -2.835132 -522.283968 -82.145149 515.316917 0.000000 0.000000 0.000000 -9.527349 6.903815 2.198337 0.861154 5.917614 16.545590 0.503808 3.998439 -15.469252 0.176038 -2.702890 -7.452605 0.000000 0.000000 0.000000 11.546154 7.755828 -1.839807 -2.480725 -9.802862 28.340558 -1.178319 -21.503609 -37.287956 -0.126933 -2.296998 6.327324 0.624186 -0.069103 -1.140393 -1.286112 -0.095826 0.175957 -1.668823 -0.044226 0.816035 -0.955576 0.844961 -4.348737 -1.776571 -0.125601 36.239072 -0.715395 -1.189197 12.775298 0.000000 0.000000 0.000000 14.893233 -28.594658 -54.527410 28.388681 -39.471640 10.369881 7.376343 -31.462187 -11.556224 0.000000 0.000000 0.000000 -7.125000 0.000000 0.000000 -17.433209 40.982994 -1.788471 0.000000 0.000000 0.000000 -4.064303 -3.678733 23.358978 -18.017483 -28.179554 -4.557486 -4.802238 8.067190 2.812579 0.000000 0.000000 0.000000 7.125000 0.000000 0.000000 17.463307 32.436109 5.600102
-3.481091 16.352403 -2.922617 -523.221785 -82.245795 516.819209 0.000000 0.000000 0.000000 -9.446460 6.453565 1.218651 0.848195 5.874047 16.419476 0.459003 4.142886 -14.991017 0.149423 -2.491180 -6.865301 0.000000 0.000000 0.000000 11.180239 6.522582 -3.456663 -2.471348 -9.785668 28.285559 -1.162453 -20.380907 -36.023771 -0.065018 -1.644767 4.524955 0.753734 -0.107499 0.340472 -1.422553 -0.146134 0.597826 -1.879401 -0.069862 0.415495 -1.178054 0.522875 -4.142313 -1.540372 -0.745308 36.698002 -0.666896 -1.489671 12.932311 0.000000 0.000000 0.000000 14.490908 -26.010648 -52.085170 25.217194 -36.425074 8.418600 6.432099 -30.811036 -12.747092 0.000000 0.000000 0.000000 -7.125000 0.000000 0.000000 -18.595123 42.032599 -1.415369 0.000000 0.000000 0.000000 -4.888490 -4.165792 24.697833 -19.364618 -29.869202 -5.211168 -8.850685 4.801307 3.099703 0.000000 0.000000 0.000000 7.125000 0.000000 0.000000 14.334492 32.868152 4.379069
-3.386626 16.365687 -3.068990 -524.222606 -82.203170 518.337725 0.000000 0.000000 0.000000 -9.272512 5.471251 1.191254 0.773426 5.615449 15.672534 0.391330 5.204591 -14.880284 0.103671 -2.075971 -5.715687 0.000000 0.000000 0.000000 11.401278 6.110659 -4.687952 -2.514383 -9.864024 28.537634 -1.241911 -19.742198 -35.792505 -0.033633 -1.184297 3.256040 0.968788 -0.310619 1.159202 -1.080607 -0.415743 1.323729 -1.647420 -0.200082 0.690693 -1.697439 -0.262265 -4.326758 -0.673976 -2.021809 35.845741 -0.363070 -1.971246 12.611914 0.000000 0.000000 0.000000 13.931391 -22.721085 -49.759074 21.273889 -32.146569 6.195154 7.175908 -28.752198 -12.126241 0.000000 0.000000 0.000000 -7.125000 0.000000 0.000000 -17.769531 41.510950 -1.585169 0.000000 0.000000 0.000000 -5.916369 -5.247316 24.803222 -19.238642 -29.714099 -5.148605 -9.926909 4.404834 3.083922 0.000000 0.000000 0.000000 7.125000 0.000000 0.000000 13.478128 32.892039 4.096071
-3.383814 16.390166 -3.244178 -522.977783 -82.366118 517.979050 0.000000 0.000000 0.000000 -8.824164 4.174787 1.424213 0.668460 5.228486 14.561374 0.344740 6.258272 -15.137154 0.070923 -1.717784 -4.726296 0.000000 0.000000 0.000000 11.958883 5.579537 -5.574685 -2.488308 -9.816629 28.384797 -1.467709 -18.904356 -36.173821 -0.023723 -0.994421 2.733551 1.454640 -0.732476 1.387039 -0.410180 -0.972594 1.291895 -1.225889 -0.478265 0.514168 -2.123058 -0.989626 -4.219221 0.715052 -3.695021 36.572982 0.037185 -2.647554 12.963758 0.000000 0.000000 0.000000 12.849699 -17.549468 -46.590926 16.763279 -26.544326 3.981159 7.712208 -23.578856 -10.746819 0.000000 0.000000 0.000000 -7.125000 0.000000 0.000000 -16.923275 40.234167 -2.056092 0.000000 0.000000 0.000000 -6.650438 -5.594316 22.152556 -17.300387 -27.251928 -4.223995 -9.632868 6.308251 3.210847 0.000000 0.000000 0.000000 7.125000 0.000000 0.000000 13.732390 33.006387 4.138214
-3.472466 16.409257 -3.404868 -521.263756 -82.595720 517.091544 0.000000 0.000000 0.000000 -8.382645 3.110057 1.922731 0.575791 4.859262 13.507644 0.287262 7.301518 -15.333738 0.075787 -1.775453 -4.885452 0.000000 0.000000 0.000000 12.527668 5.135640 -5.983748 -2.457057 -9.759345 28.200881 -1.578201 -18.512831 -36.386744 -0.020408 -0.922775 2.536410 1.935145 -1.138131 0.699923 0.513707 -1.533819 1.358316 -0.559795 -0.756203 0.962241 -2.315815 -1.856159 -3.908827 2.137312 -5.667345 37.013173 0.383447 -3.415796 13.199878 0.000000 0.000000 0.000000 10.348400 -12.575539 -38.217264 11.411471 -18.915803 1.907486 8.659826 -16.914262 -9.279027 0.000000 0.000000 0.000000 -7.125000 0.000000 0.000000 -15.749030 38.890157 -2.442040 0.000000 0.000000 0.000000 -7.471823 -5.302329 16.807695 -14.885494 -23.986252 -3.179251 -11.569060 7.388788 3.507798 0.000000 0.000000 0.000000 7.125000 0.000000 0.000000 12.234217 33.373071 3.556403
-3.592932 16.416972 -3.524744 -520.349960 -82.832936 516.769818 0.000000 0.000000 0.000000 -8.124007 2.526691 2.425736 0.511435 4.584023 12.725845 0.194818 8.265851 -15.046753 0.084544 -1.875283 -5.161071 0.000000 0.000000 0.000000 12.921644 5.046723 -6.091178 -2.469179 -9.781622 28.272345 -1.605953 -18.474146 -36.497021 -0.027962 -1.079918 2.968751 2.332661 -1.625588 1.085316 1.444467 -2.177849 1.030218 0.188676 -1.089619 0.417039 -2.462875 -2.483803 -3.508015 3.436488 -7.097053 36.568327 0.757009 -3.933205 13.035625 0.000000 0.000000 0.000000 7.520712 -6.738266 -22.613085 7.118837 -12.114477 0.756583 10.423921 -7.352013 -8.598768 0.000000 0.000000 0.000000 -7.125000 0.000000 0.000000 -14.113543 38.354816 -2.365837 0.000000 0.000000 0.000000 -8.253817 -3.759951 10.112501 -12.633467 -20.747659 -2.321858 -14.206444 8.724065 3.149846 0.000000 0.000000 0.000000 7.125000 0.000000 0.000000 10.067380 33.107503 2.973371
-3.746403 16.416022 -3.600338 -522.877755 -82.909816 519.862182 0.000000 0.000000 0.000000 -8.256764 2.750539 2.982818 0.431325 4.214839 11.681923 0.104532 9.010249 -14.582837 0.156578 -2.549280 -7.026333 0.000000 0.000000 0.000000 12.778431 5.317290 -6.282109 -2.540543 -9.911259 28.689908 -1.541439 -18.628704 -36.301824 -0.050231 -1.446750 3.978953 2.480000 -1.926261 1.303681 2.081455 -2.580860 0.959187 0.771436 -1.299388 0.239882 -2.414427 -3.035512 -3.396486 4.072154 -8.040801 35.662332 0.895368 -4.261148 12.689047 0.000000 0.000000 0.000000 5.249707 -0.767890 -8.831133 5.114875 -8.778101 0.392836 9.950236 1.190127 -8.459398 0.000000 0.000000 0.000000 -7.125000 0.000000 0.000000 -14.479128 38.184257 -2.492575 0.000000 0.000000 0.000000 -8.780314 -1.829366 3.599878 -11.100810 -18.442534 -1.807659 -15.179647 11.307541 4.117097 0.000000 0.000000 0.000000 7.125000 0.000000 0.000000 9.406300 34.128577 2.537762
-3.915896 16.413638 -3.639274 -525.166708 -82.911473 522.889691 0.000000 0.000000 0.000000 -8.482669 3.008132 3.290361 0.374638 3.931341 10.883585 0.071413 9.441092 -14.620698 0.208336 -2.938452 -8.107559 0.000000 0.000000 0.000000 12.548856 5.671908 -6.537232 -2.595224 -10.008949 29.005845 -1.437967 -18.944023 -36.053049 -0.093849 -1.976024 5.439288 2.518275 -2.070547 1.537077 2.478818 -2.768022 0.851298 1.171468 -1.399548 0.015991 -2.409928 -3.777267 -2.315585 4.537844 -8.821124 32.954394 1.050710 -4.551483 11.398017 0.000000 0.000000 0.000000 3.090173 4.811116 -4.298595 5.212308 -8.942284 0.407847 8.063531 0.760270 -9.536114 0.000000 0.000000 0.000000 -7.125000 0.000000 0.000000 -16.312152 39.093828 -2.450445 0.000000 0.000000 0.000000 -8.789991 0.911928 -0.273739 -10.486639 -17.497160 -1.618204 -14.800131 12.429996 3.962952 0.000000 0.000000 0.000000 7.125000 0.000000 0.000000 9.694162 33.956240 2.658368
-4.063858 16.412029 -3.644728 -526.786708 -82.766051 525.305659 0.000000 0.000000 0.000000 -8.659655 3.491907 3.188079 0.337224 3.731748 10.323264 0.046881 9.615838 -14.466860 0.281578 -3.412670 -9.429858 0.000000 0.000000 0.000000 12.268041 6.054640 -7.001020 -2.638174 -10.084948 29.252345 -1.121488 -19.978139 -35.379187 -0.143408 -2.440511 6.724690 2.549205 -2.105132 2.164855 2.657971 -2.795045 0.931934 1.362557 -1.417659 -0.244875 -2.154248 -4.651394 0.151912 4.777563 -9.044463 26.452905 1.244068 -4.600122 8.512495 0.000000 0.000000 0.000000 1.092970 8.402089 -5.221654 6.534644 -11.150748 0.638667 8.225251 -6.500533 -10.131310 0.000000 0.000000 0.000000 -7.125000 0.000000 0.000000 -16.327252 39.682496 -2.208225 0.000000 0.000000 0.000000 -8.375541 2.237387 -3.090234 -9.974224 -16.699239 -1.467543 -14.105158 13.463960 3.824195 0.000000 0.000000 0.000000 7.125000 0.000000 0.000000 10.238317 33.788107 2.853984
-4.192008 16.435281 -3.624760 -529.153654 -82.426129 528.660147 0.000000 0.000000 0.000000 -9.041567 4.035728 2.684018 0.310596 3.583036 9.906365 -0.025326 10.026057 -13.859851 0.317600 -3.622652 -10.017389 0.000000 0.000000 0.000000 11.770019 6.673893 -7.809034 -2.670507 -10.141604 29.436396 -0.519817 -22.258356 -34.571717 -0.158116 -2.561927 7.061449 2.484052 -2.125964 2.754655 2.595765 -2.814503 1.264356 1.352231 -1.428183 -0.233611 -1.971238 -5.383246 2.885474 4.792290 -9.022334 19.119815 1.428310 -4.590216 5.610719 0.000000 0.000000 0.000000 -0.079885 8.921810 -5.697399 8.107677 -13.727249 0.977546 7.669988 -12.758478 -10.364926 0.000000 0.000000 0.000000 -7.125000 0.000000 0.000000 -16.856635 39.862673 -2.207160 0.000000 0.000000 0.000000 -7.649455 1.858874 -2.897552 -10.151930 -16.976913 -1.519014 -13.990736 13.172448 3.949536 0.000000 0.000000 0.000000 7.125000 0.000000 0.000000 10.348203 33.910641 2.854226
-4.260511 16.478461 -3.587176 -531.877965 -82.243580 532.539301 0.000000 0.000000 0.000000 -9.660743 4.282951 1.612241 0.299932 3.521509 9.734365 -0.084061 10.243097 -13.153927 0.330237 -3.693428 -10.215863 0.000000 0.000000 0.000000 11.136066 7.426139 -8.746747 -2.662510 -10.127621 29.390924 -0.443582 -22.585805 -34.534964 -0.175409 -2.697636 7.438051 2.294464 -2.148752 3.728167 2.295892 -2.831552 1.758460 1.180042 -1.437124 -0.276566 -1.911273 -6.210288 5.441315 4.488407 -9.326598 12.137430 1.651888 -4.779478 3.334845 0.000000 0.000000 0.000000 0.297409 6.655738 -8.450892 9.874597 -16.543023 1.439212 8.635322 -16.351774 -9.822728 0.000000 0.000000 0.000000 -7.125000 0.000000 0.000000 -15.903446 39.416281 -2.254894 0.000000 0.000000 0.000000 -6.817320 0.683150 2.474729 -11.664400 -19.299345 -1.990061 -14.241244 9.105405 3.647038 0.000000 0.000000 0.000000 7.125000 0.000000 0.000000 10.104575 33.613445 2.859055
-4.256699 16.547279 -3.538290 -532.767826 -82.062509 534.992501 0.000000 0.000000 0.000000 -10.133470 4.165722 -0.578249 0.333535 3.711542 10.266609 -0.137217 10.472203 -12.517237 0.307518 -3.565218 -9.856559 0.000000 0.000000 0.000000 10.608212 8.150767 -10.339452 -2.608906 -10.033285 29.084549 -0.316078 -22.829179 -34.099408 -0.209601 -2.947725 8.133143 2.006661 -2.226594 5.007959 2.078362 -2.923186 2.211340 1.166038 -1.487928 -0.521483 -1.920177 -6.606998 7.238082 4.252142 -9.402286 7.291638 1.719950 -4.818562 1.392704 0.000000 0.000000 0.000000 1.648211 3.929052 -14.627065 13.402951 -21.874158 2.601818 10.369136 -20.921702 -9.227562 0.000000 0.000000 0.000000 -7.125000 0.000000 0.000000 -14.300268 38.969271 -2.177196 0.000000 0.000000 0.000000 -6.560089 -0.499817 10.696766 -15.066525 -24.238011 -3.253549 -14.234729 4.849965 4.429592 0.000000 0.000000 0.000000 7.125000 0.000000 0.000000 10.217300 34.407393 2.692081
